HIERARCHY
ROOT Hips
{
  OFFSET 0.0 0.0 0.0
  CHANNELS 6 Xposition Yposition Zposition Zrotation Yrotation Xrotation
  JOINT LHipJoint
  {
    OFFSET 0.0 0.0 0.0
    CHANNELS 3 Zrotation Yrotation Xrotation
    JOINT LeftUpLeg
    {
      OFFSET 1.363059998 -1.794630051 0.839290023
      CHANNELS 3 Zrotation Yrotation Xrotation
      JOINT LeftLeg
      {
        OFFSET 2.448110104 -6.726130009 0.0
        CHANNELS 3 Zrotation Yrotation Xrotation
        JOINT LeftFoot
        {
          OFFSET 2.562200069 -7.039589882 0.0
          CHANNELS 3 Zrotation Yrotation Xrotation
          JOINT LeftToeBase
          {
            OFFSET 0.157639995 -0.433109999 2.322550058
            CHANNELS 3 Zrotation Yrotation Xrotation
            End Site
            {
              OFFSET 0.0 -0.0 1.189659953
            }
          }
        }
      }
    }
  }
  JOINT RHipJoint
  {
    OFFSET 0.0 0.0 0.0
    CHANNELS 3 Zrotation Yrotation Xrotation
    JOINT RightUpLeg
    {
      OFFSET -1.305520058 -1.794630051 0.839290023
      CHANNELS 3 Zrotation Yrotation Xrotation
      JOINT RightLeg
      {
        OFFSET -2.54253006 -6.985549927 0.0
        CHANNELS 3 Zrotation Yrotation Xrotation
        JOINT RightFoot
        {
          OFFSET -2.568259954 -7.056230068 0.0
          CHANNELS 3 Zrotation Yrotation Xrotation
          JOINT RightToeBase
          {
            OFFSET -0.164729998 -0.452589989 2.363149881
            CHANNELS 3 Zrotation Yrotation Xrotation
            End Site
            {
              OFFSET -0.0 -0.0 1.21081996
            }
          }
        }
      }
    }
  }
  JOINT LowerBack
  {
    OFFSET 0.0 0.0 0.0
    CHANNELS 3 Zrotation Yrotation Xrotation
    JOINT Spine
    {
      OFFSET 0.028270001 2.035589933 -0.193379998
      CHANNELS 3 Zrotation Yrotation Xrotation
      JOINT Spine1
      {
        OFFSET 0.05672 2.04885006 -0.042750001
        CHANNELS 3 Zrotation Yrotation Xrotation
        JOINT Neck
        {
          OFFSET 0.0 0.0 0.0
          CHANNELS 3 Zrotation Yrotation Xrotation
          JOINT Neck1
          {
            OFFSET -0.054170001 1.74624002 0.172020003
            CHANNELS 3 Zrotation Yrotation Xrotation
            JOINT Head
            {
              OFFSET 0.10407 1.761360049 -0.123970002
              CHANNELS 3 Zrotation Yrotation Xrotation
              End Site
              {
                OFFSET 0.0372 1.770439982 -0.062410001
              }
            }
          }
        }
        JOINT LeftShoulder
        {
          OFFSET 0.0 0.0 0.0
          CHANNELS 3 Zrotation Yrotation Xrotation
          JOINT LeftArm
          {
            OFFSET 3.362410069 1.200889945 -0.311210006
            CHANNELS 3 Zrotation Yrotation Xrotation
            JOINT LeftForeArm
            {
              OFFSET 4.982999802 -0.0 -0.0
              CHANNELS 3 Zrotation Yrotation Xrotation
              JOINT LeftHand
              {
                OFFSET 3.483560085 -0.0 -0.0
                CHANNELS 3 Zrotation Yrotation Xrotation
                JOINT LeftFingerBase
                {
                  OFFSET 0.0 0.0 0.0
                  CHANNELS 3 Zrotation Yrotation Xrotation
                  JOINT LeftHandIndex1
                  {
                    OFFSET 0.715260029 -0.0 -0.0
                    CHANNELS 3 Zrotation Yrotation Xrotation
                    End Site
                    {
                      OFFSET 0.576659977 -0.0 -0.0
                    }
                  }
                }
                JOINT LThumb
                {
                  OFFSET 0.0 0.0 0.0
                  CHANNELS 3 Zrotation Yrotation Xrotation
                  End Site
                  {
                    OFFSET 0.585470021 -0.0 0.585470021
                  }
                }
              }
            }
          }
        }
        JOINT RightShoulder
        {
          OFFSET 0.0 0.0 0.0
          CHANNELS 3 Zrotation Yrotation Xrotation
          JOINT RightArm
          {
            OFFSET -3.136600018 1.374050021 -0.404650003
            CHANNELS 3 Zrotation Yrotation Xrotation
            JOINT RightForeArm
            {
              OFFSET -5.241899967 -0.0 -0.0
              CHANNELS 3 Zrotation Yrotation Xrotation
              JOINT RightHand
              {
                OFFSET -3.444169998 -0.0 -0.0
                CHANNELS 3 Zrotation Yrotation Xrotation
                JOINT RightFingerBase
                {
                  OFFSET 0.0 0.0 0.0
                  CHANNELS 3 Zrotation Yrotation Xrotation
                  JOINT RightHandIndex1
                  {
                    OFFSET -0.622529984 -0.0 -0.0
                    CHANNELS 3 Zrotation Yrotation Xrotation
                    End Site
                    {
                      OFFSET -0.501900017 -0.0 -0.0
                    }
                  }
                }
                JOINT RThumb
                {
                  OFFSET 0.0 0.0 0.0
                  CHANNELS 3 Zrotation Yrotation Xrotation
                  End Site
                  {
                    OFFSET -0.509559989 -0.0 0.509559989
                  }
                }
              }
            }
          }
        }
      }
    }
  }
}
MOTION
Frames: 9
Frame Time: 0.0083333
34.786182404 18.970500946 -2.131328106 -176.950897217 17.315999985 176.278991699 0.0 -0.0 0.0 -19.680904388 12.635899544 -0.253600359 0.251600027 3.227600813 8.913002968 0.133299977 0.932099938 -7.303099632 0.169699967 2.654099703 7.317099094 0.0 -0.0 0.0 18.209302902 18.013101578 -54.31010437 -20.902820587 -19.980394363 92.640388489 -1.036100268 1.187399983 -18.880399704 -0.017800003 -0.861000061 2.366400003 -11.188899994 0.668299854 26.902002335 -1.408600092 1.503200054 13.597399712 4.443100452 1.542500257 0.519599915 -5.614200592 1.377900243 -21.279392242 2.819299459 3.743700504 25.714696884 2.642400026 1.697099924 11.805297852 0.0 -0.0 0.0 -20.292207718 -72.467010498 -18.18740654 13.597598076 -22.156497955 -2.674499512 0.0 -0.0 17.234199524 21.100906372 -10.304800034 -3.948800087 -7.125 0.0 0.0 -4.199800014 18.968200684 2.613600254 0.0 -0.0 0.0 80.72794342 65.578277588 64.14465332 -41.651496887 49.018497467 -19.677093506 0.0 -0.0 4.852000237 -24.743801117 -14.159003258 6.432199955 7.125 -0.0 0.0 2.553200245 -45.488502502 -0.030800389 
34.764781952 18.862499237 -2.059531689 -176.676803589 17.77599144 176.145996094 0.0 -0.0 0.0 -19.150501251 13.227300644 -0.21990031 0.264499992 3.308399916 9.138498306 0.138299987 0.773900151 -7.349900723 0.091799997 1.953700066 5.377601147 0.0 -0.0 0.0 18.802499771 18.314090729 -52.728687286 -20.813699722 -19.984104156 92.379798889 -0.873399913 0.573199809 -17.479797363 -0.096199997 -2.000500202 5.507100105 -11.53069973 0.975700557 26.667598724 -1.218000174 1.858399987 13.669000626 4.762500763 1.680600286 0.665600121 -5.183498859 1.116700172 -22.040697098 2.611999512 3.303299427 25.938405991 2.445100307 1.49879992 12.078000069 0.0 -0.0 0.0 -20.271188736 -72.480781555 -17.856502533 13.553203583 -22.092403412 -2.65780139 0.0 -0.0 17.121702194 20.9862957 -9.742499352 -3.713899136 -7.125 0.0 0.0 -4.269599915 19.574796677 2.599500179 0.0 -0.0 0.0 80.298110962 63.681106567 63.483398438 -41.413795471 48.885593414 -19.497795105 0.0 -0.0 4.387499809 -24.103298187 -14.357797623 6.330599308 7.125 -0.0 0.0 3.183100462 -45.620204926 -0.048800357 
34.766780853 18.733999252 -1.996230602 -176.792602539 18.206979752 175.849014282 0.0 -0.0 0.0 -19.019306183 13.856500626 -0.069600612 0.267800003 3.329099417 9.196299553 0.134800002 0.758400023 -7.254799843 0.203900039 2.907800198 8.022001266 0.0 -0.0 0.0 18.920196533 19.321302414 -50.977909088 -20.708406448 -19.98800087 92.071601868 -0.724200189 -0.98360008 -16.461999893 -0.127800018 -2.304199934 6.34719944 -12.236999512 1.346999764 26.579399109 -1.112100124 2.198400021 13.69530201 5.192800522 1.805699706 0.705799878 -5.323899746 0.944700122 -22.124797821 2.745399952 3.062599659 25.913200378 2.480700254 1.393500209 12.091202736 0.0 -0.0 0.0 -20.334409714 -72.485206604 -17.414403915 13.487401962 -21.99720192 -2.633100033 0.0 -0.0 17.061800003 20.946804047 -9.14109993 -3.480100632 -7.125 0.0 0.0 -4.287899971 20.217197418 2.549000263 0.0 -0.0 0.0 79.934295654 61.728694916 62.770885468 -41.129501343 48.724998474 -19.283798218 0.0 -0.0 3.119400024 -23.742397308 -14.430999756 6.255600452 7.125 -0.0 0.0 3.532199144 -45.651992798 -0.056898892 
34.754482269 18.63010025 -1.929130077 -176.907501221 18.60899353 175.614028931 0.0 -0.0 0.0 -18.884504318 14.49830246 0.201799348 0.25 3.216999769 8.88339901 0.134899974 0.562099993 -7.1658988 0.090999991 1.94539988 5.354799747 0.0 -0.0 0.0 19.054601669 19.794404984 -49.326305389 -20.525915146 -19.993413925 91.537704468 -0.614700079 -1.843600035 -15.5911026 -0.163399994 -2.604300499 7.178800583 -12.920201302 1.695699692 26.472198486 -1.01609993 2.505899429 13.69359684 5.606900215 1.914200068 0.720799983 -5.849899769 0.86589992 -21.828697205 3.148499489 2.994400024 25.720399857 2.697799683 1.370399475 11.943498611 0.0 -0.0 0.0 -20.5785923 -72.334693909 -16.525915146 13.475502968 -21.979898453 -2.628600597 0.0 -0.0 16.799100876 21.191295624 -8.759800911 -3.378999949 -7.125 0.0 0.0 -4.106599808 20.60669899 2.40459919 0.0 -0.0 0.0 79.208496094 59.724090576 61.898303986 -40.918891907 48.604995728 -19.125692368 0.0 -0.0 2.078700066 -22.51250267 -14.600702286 5.964600086 7.125 -0.0 0.0 4.708299637 -45.674095154 -0.078500353 
34.745082855 18.544099808 -1.860030651 -176.845703125 19.020996094 175.419006348 0.0 -0.0 0.0 -18.548402786 15.118599892 0.435799181 0.240800008 3.157999516 8.718998909 0.142499998 0.251099974 -7.224699497 0.085799985 1.88929975 5.199798584 0.0 -0.0 0.0 19.379295349 20.04479599 -47.660797119 -20.281791687 -19.998106003 90.823898315 -0.515300035 -2.31959939 -14.601302147 -0.144600004 -2.450200081 6.751599312 -13.38160038 1.980399728 26.298595428 -0.909399867 2.796799421 13.727499962 5.915999413 2.021299839 0.797799885 -6.025700092 0.780100167 -21.589803696 3.2493999 2.879400492 25.531496048 2.736000061 1.318300128 11.824799538 0.0 -0.0 0.0 -20.746284485 -72.344482422 -16.221513748 13.357199669 -21.808395386 -2.584498882 0.0 -0.0 16.751996994 21.372400284 -8.639100075 -3.364199877 -7.125 0.0 0.0 -3.974500418 20.723499298 2.316399574 0.0 -0.0 0.0 77.715087891 57.483493805 61.077690125 -41.165500641 48.745498657 -19.311000824 0.0 -0.0 0.606800139 -22.179397583 -15.305096626 6.141898155 7.125 -0.0 0.0 5.159100056 -46.378795624 -0.176000074 
34.731082916 18.474899292 -1.791831493 -176.769607544 19.485994339 175.22102356 0.0 -0.0 0.0 -18.211904526 15.75890255 0.578098536 0.242700055 3.169999838 8.75249958 0.149000049 0.024000004 -7.298300743 0.07850001 1.806900144 4.972400188 0.0 -0.0 0.0 19.730098724 20.339096069 -45.933895111 -19.982398987 -20.000005722 89.948501587 -0.424200088 -2.707000256 -13.59290123 -0.081200011 -1.838400245 5.05919981 -13.801503181 2.270601034 26.073003769 -0.79910022 3.116299868 13.778400421 6.201499939 2.141800642 0.907800019 -5.866900921 0.68170011 -21.342700958 3.007200241 2.718400002 25.249500275 2.579899549 1.231399775 11.684199333 0.0 -0.0 0.0 -21.509508133 -72.93712616 -17.589712143 13.048701286 -21.358499527 -2.470999956 0.0 -0.0 18.549503326 21.196699142 -8.640299797 -3.334300995 -7.125 0.0 0.0 -4.101200581 20.733798981 2.389699936 0.0 -0.0 0.0 75.754402161 54.807689667 60.097099304 -42.426696777 49.443698883 -20.264196396 0.0 0.0 -1.2645998 -21.502004623 -16.876001358 6.524302006 7.125 -0.0 0.0 6.150102615 -47.942806244 -0.448102772 
34.70728302 18.415000916 -1.723929882 -176.717712402 19.874998093 175.082015991 0.0 -0.0 0.0 -17.918899536 16.267499924 0.573198676 0.256800056 3.260399818 9.004501343 0.158599988 -0.237599999 -7.440099716 0.095700003 1.995300174 5.492498875 0.0 -0.0 0.0 20.025800705 20.556598663 -44.216899872 -19.623102188 -19.996595383 88.898010254 -0.359100074 -3.046199799 -12.855200768 -0.042100001 -1.324599981 3.642399549 -14.256697655 2.562199354 25.785692215 -0.648299932 3.433799744 13.817500114 6.555399895 2.253400087 1.027199864 -5.939200401 0.546200454 -21.079296112 3.04399991 2.495600224 24.887800217 2.555100441 1.131000042 11.504600525 0.0 -0.0 0.0 -22.121397018 -72.917106628 -16.497499466 13.075900078 -21.398300171 -2.480900049 0.0 -0.0 17.751096725 21.348703384 -8.058899879 -3.136400223 -7.125 0.0 0.0 -3.98410058 21.344408035 2.266100168 0.0 -0.0 0.0 77.054595947 53.024383545 59.453395844 -41.227603912 48.780601501 -19.357601166 0.0 0.0 -1.184499979 -21.194297791 -16.917901993 6.437900543 7.125 -0.0 0.0 6.453102589 -47.94190979 -0.470201701 
34.705783844 18.356599808 -1.660830975 -176.669189453 20.205980301 174.92199707 0.0 -0.0 0.0 -17.620504379 16.680299759 0.495899588 0.284700006 3.431599855 9.482598305 0.172100008 -0.589399934 -7.646701813 0.123200007 2.263000011 6.232999325 0.0 -0.0 0.0 20.318305969 20.711603165 -42.424701691 -19.213006973 -19.985103607 87.698402405 -0.301499993 -3.347699404 -12.156597137 -0.038800005 -1.271999836 3.497499943 -14.752802849 2.878700972 25.510599136 -0.440700114 3.772399426 13.846901894 6.990300655 2.371400118 1.117500067 -6.234499454 0.384499967 -20.905595779 3.384200811 2.242000341 24.666601181 2.681899786 1.034399986 11.390799522 0.0 -0.0 0.0 -23.090091705 -73.14730072 -15.801222801 12.986397743 -21.267301559 -2.448399544 0.0 -0.0 17.839099884 21.502796173 -7.934401035 -3.112799883 -7.125 0.0 0.0 -3.870900393 21.468103409 2.190500259 0.0 -0.0 0.0 78.805725098 51.453701019 58.580825806 -38.820800781 47.355594635 -17.566900253 0.0 -0.0 0.173600003 -20.682302475 -16.614900589 6.161001205 7.125 -0.0 0.0 6.864200592 -47.551292419 -0.434099853 
34.700084686 18.306200027 -1.59662962 -176.615707397 20.589012146 174.819000244 0.0 -0.0 0.0 -17.34690094 16.9272995 0.196800038 0.336700082 3.728899479 10.315200806 0.19249998 -1.038099885 -7.985800266 0.152299985 2.51499939 6.931300163 0.0 -0.0 0.0 20.61019516 20.917798996 -40.706501007 -18.757293701 -19.962898254 86.364501953 -0.217300087 -3.831600904 -11.07060051 -0.047899999 -1.41170013 3.882400274 -15.171001434 3.099901199 25.211904526 -0.304699838 3.99869895 13.857296944 7.332399368 2.436700344 1.218199968 -6.519399166 0.317000329 -20.933395386 3.695199728 2.143899918 24.564905167 2.826700449 1.002599716 11.354701042 0.0 -0.0 0.0 -23.79691124 -73.117218018 -15.066094398 12.944298744 -21.205493927 -2.433100462 0.0 -0.0 17.614704132 21.621498108 -7.602098942 -3.001600027 -7.125 0.0 0.0 -3.781100035 21.816501617 2.109600544 0.0 -0.0 0.0 78.815299988 49.430915833 57.938205719 -38.002601624 46.841003418 -16.967500687 0.0 -0.0 0.457999885 -20.149505615 -16.587902069 5.980101585 7.125 -0.0 0.0 7.360499859 -47.447898865 -0.446899712 
